HIERARCHY
ROOT joint_Root
{
	OFFSET 0.0 0.0 0.0
	CHANNELS 6 Xposition Yposition Zposition Zrotation Xrotation Yrotation 
	JOINT Hips
	{
		OFFSET 4.5925 91.4895 -427.239
		CHANNELS 6 Xposition Yposition Zposition Zrotation Xrotation Yrotation 
		JOINT Spine
		{
			OFFSET 15.7357 0.0 0.0
			CHANNELS 6 Xposition Yposition Zposition Zrotation Xrotation Yrotation 
			JOINT Chest
			{
				OFFSET 8.98455 -0.406207 0.0
				CHANNELS 6 Xposition Yposition Zposition Zrotation Xrotation Yrotation 
				JOINT Neck
				{
					OFFSET 16.3773 0.0 0.0
					CHANNELS 6 Xposition Yposition Zposition Zrotation Xrotation Yrotation 
					JOINT Head
					{
						OFFSET 6.45672 0.0 0.0
						CHANNELS 6 Xposition Yposition Zposition Zrotation Xrotation Yrotation 
						End Site
						{
							OFFSET 0.0 0.0 0.0
						}
					}
				}
				JOINT Shoulder_L
				{
					OFFSET 12.9942 -0.242716 4.98039
					CHANNELS 6 Xposition Yposition Zposition Zrotation Xrotation Yrotation 
					JOINT UpperArm_L
					{
						OFFSET 5.34809 0.0 0.0
						CHANNELS 6 Xposition Yposition Zposition Zrotation Xrotation Yrotation 
						JOINT LowerArm_L
						{
							OFFSET 24.3286 1.87007e-05 0.0
							CHANNELS 6 Xposition Yposition Zposition Zrotation Xrotation Yrotation 
							JOINT Hand_L
							{
								OFFSET 22.2916 0.0 0.0
								CHANNELS 6 Xposition Yposition Zposition Zrotation Xrotation Yrotation 
								End Site
								{
									OFFSET 0.0 0.0 0.0
								}
							}
						}
					}
				}
				JOINT Shoulder_R
				{
					OFFSET 12.9945 -0.242716 -4.98039
					CHANNELS 6 Xposition Yposition Zposition Zrotation Xrotation Yrotation 
					JOINT UpperArm_R
					{
						OFFSET -5.34813 0.0 0.0
						CHANNELS 6 Xposition Yposition Zposition Zrotation Xrotation Yrotation 
						JOINT LowerArm_R
						{
							OFFSET -24.3289 0.000322201 0.0
							CHANNELS 6 Xposition Yposition Zposition Zrotation Xrotation Yrotation 
							JOINT Hand_R
							{
								OFFSET -22.2915 -0.000108084 0.0
								CHANNELS 6 Xposition Yposition Zposition Zrotation Xrotation Yrotation 
								End Site
								{
									OFFSET 0.0 0.0 0.0
								}
							}
						}
					}
				}
			}
		}
		JOINT UpperLeg_L
		{
			OFFSET -2.19248 -6.46944 0.0
			CHANNELS 6 Xposition Yposition Zposition Zrotation Xrotation Yrotation 
			JOINT LowerLeg_L
			{
				OFFSET 39.0811 0.0 -1.23785e-05
				CHANNELS 6 Xposition Yposition Zposition Zrotation Xrotation Yrotation 
				JOINT Foot_L
				{
					OFFSET 40.9854 0.0 -1.26872e-05
					CHANNELS 6 Xposition Yposition Zposition Zrotation Xrotation Yrotation 
					JOINT Toes_L
					{
						OFFSET 11.7543 0.0 0.0
						CHANNELS 6 Xposition Yposition Zposition Zrotation Xrotation Yrotation 
						End Site
						{
							OFFSET 0.0 0.0 0.0
						}
					}
				}
			}
		}
		JOINT UpperLeg_R
		{
			OFFSET -2.19251 6.46944 0.0
			CHANNELS 6 Xposition Yposition Zposition Zrotation Xrotation Yrotation 
			JOINT LowerLeg_R
			{
				OFFSET -39.0811 -0.00228153 -0.0401928
				CHANNELS 6 Xposition Yposition Zposition Zrotation Xrotation Yrotation 
				JOINT Foot_R
				{
					OFFSET -40.9854 0.0 0.0
					CHANNELS 6 Xposition Yposition Zposition Zrotation Xrotation Yrotation 
					JOINT Toes_R
					{
						OFFSET -11.7543 0.0 0.0
						CHANNELS 6 Xposition Yposition Zposition Zrotation Xrotation Yrotation 
						End Site
						{
							OFFSET 0.0 0.0 0.0
						}
					}
				}
			}
		}
	}
}
MOTION
Frames:	4
Frame Time:	0.0333333
0.000000 0.000000 0.000000 0.000000 0.000000 -0.000000 -1.653520 91.541900 0.791864 89.496900 9.476130 2.713170 15.735700 0.000005 -0.000001 101.971000 85.689800 -105.255000 8.984550 -0.406207 -0.000000 0.732931 1.988750 -6.576530 16.377300 -0.000001 -0.000001 5.381240 -6.133530 5.684460 6.456720 -0.000001 -0.000000 -1.349550 -4.404810 1.091340 12.994200 -0.242716 4.980390 -91.972500 5.446990 -70.058800 5.348090 -0.000007 -0.000001 -62.612200 20.798300 -6.488220 24.328600 0.000019 0.000005 5.722910 18.878900 -17.208900 22.291600 -0.000001 0.000005 15.317600 5.140360 4.172600 12.994500 -0.242716 -4.980390 92.258400 -6.416690 -70.564300 -5.348130 -0.000001 -0.000004 -46.305400 -58.566800 -85.363500 -24.328900 0.000322 -0.000009 -4.919300 -3.457540 -54.972000 -22.291500 -0.000108 -0.000004 20.357500 5.562630 -9.315920 -2.192480 -6.469440 -0.000000 -175.341000 -7.379800 -6.805280 39.081100 -0.000007 -0.000012 -0.152658 0.302623 26.768800 40.985400 -0.000006 -0.000013 0.730701 12.029400 -67.780900 11.754300 -0.000000 0.000003 -0.000182 -0.001708 -16.642200 -2.192510 6.469440 -0.000001 176.269000 30.693300 177.692000 -39.081100 -0.002282 -0.040193 -0.045770 0.103519 25.366800 -40.985400 0.000008 0.000006 5.049260 10.633300 -70.159700 -11.754300 -0.000006 -0.000006 -0.002949 -0.040029 -18.201000
0.000000 0.000000 0.000000 0.000000 0.000000 -0.000000 -1.509860 91.528600 0.816212 89.407400 8.370990 2.813760 15.735700 0.000005 -0.000001 101.271000 85.631600 -104.402000 8.984550 -0.406207 -0.000000 0.862407 1.895430 -6.270680 16.377300 -0.000001 -0.000001 5.316100 -5.872390 5.435960 6.456720 -0.000001 -0.000000 -1.310320 -4.242920 1.149210 12.994200 -0.242716 4.980390 -91.990100 5.514480 -70.120900 5.348090 -0.000007 -0.000001 -62.649300 22.418800 -6.966180 24.328600 0.000019 0.000005 5.774470 18.606000 -17.586000 22.291600 -0.000001 0.000005 14.900300 5.148350 3.982560 12.994500 -0.242716 -4.980390 91.824800 -5.474240 -71.533700 -5.348130 -0.000001 -0.000004 -42.752000 -56.668900 -78.559600 -24.328900 0.000322 -0.000009 -5.312120 -3.033530 -60.348700 -22.291500 -0.000108 -0.000004 20.307400 5.546050 -8.521330 -2.192480 -6.469440 -0.000000 -175.318000 -7.964470 -6.558390 39.081100 -0.000007 -0.000012 -0.154446 0.304756 26.875400 40.985400 -0.000006 -0.000013 0.730977 11.504900 -67.973600 11.754300 -0.000000 0.000003 -0.000202 -0.001866 -16.647900 -2.192510 6.469440 -0.000001 176.134000 30.310800 177.717000 -39.081100 -0.002282 -0.040193 -0.059719 0.132728 25.402300 -40.985400 0.000008 0.000006 4.829490 11.432200 -70.069000 -11.754300 -0.000006 -0.000006 -0.002794 -0.038252 -18.128700
0.000000 0.000000 0.000000 0.000000 0.000000 -0.000000 -1.357750 91.513200 0.853418 89.275600 7.068040 2.978760 15.735700 0.000005 -0.000001 100.929000 85.565600 -103.882000 8.984550 -0.406207 -0.000000 0.997183 1.854980 -5.918070 16.377300 -0.000001 -0.000001 5.216680 -5.563040 5.118070 6.456720 -0.000001 -0.000000 -1.176230 -4.167090 1.215440 12.994200 -0.242716 4.980390 -92.035300 5.634040 -70.100800 5.348090 -0.000007 -0.000001 -62.548300 24.093900 -7.619640 24.328600 0.000019 0.000005 5.873280 18.575700 -17.896100 22.291600 -0.000001 0.000005 14.448700 5.154470 3.836270 12.994500 -0.242716 -4.980390 91.304200 -4.187280 -72.685100 -5.348130 -0.000001 -0.000004 -38.586700 -53.744900 -70.529300 -24.328900 0.000322 -0.000009 -5.450730 -2.358680 -66.665900 -22.291500 -0.000108 -0.000004 20.392500 5.533540 -7.953000 -2.192480 -6.469440 -0.000000 -175.212000 -8.827520 -6.220670 39.081100 -0.000007 -0.000012 -0.156593 0.307309 27.001800 40.985400 -0.000006 -0.000013 0.758078 11.093900 -68.201100 11.754300 -0.000000 0.000003 -0.000202 -0.001866 -16.647900 -2.192510 6.469440 -0.000001 176.020000 29.907200 177.785000 -39.081100 -0.002282 -0.040193 -0.066686 0.147047 25.455300 -40.985400 0.000008 0.000006 4.819060 12.349400 -70.024600 -11.754300 -0.000006 -0.000006 -0.002755 -0.037803 -18.110400
0.000000 0.000000 0.000000 0.000000 0.000000 -0.000000 -1.201860 91.479300 0.908069 89.192100 5.694540 3.171470 15.735700 0.000005 -0.000001 100.527000 85.491100 -103.305000 8.984550 -0.406207 -0.000000 1.150450 1.806990 -5.570580 16.377300 -0.000001 -0.000001 5.027340 -5.178890 4.585260 6.456720 -0.000001 -0.000000 -1.011120 -4.152130 1.426390 12.994200 -0.242716 4.980390 -92.096100 5.803290 -70.101200 5.348090 -0.000007 -0.000001 -62.393100 25.504400 -8.253100 24.328600 0.000019 0.000005 5.966710 18.384200 -18.334700 22.291600 -0.000001 0.000005 14.211600 5.159580 3.713170 12.994500 -0.242716 -4.980390 90.749500 -2.580090 -73.799600 -5.348130 -0.000001 -0.000004 -34.595200 -49.455000 -62.343500 -24.328900 0.000322 -0.000009 -5.298420 -1.623600 -73.007000 -22.291500 -0.000108 -0.000004 20.496600 5.523440 -7.508970 -2.192480 -6.469440 -0.000000 -175.153000 -9.685590 -5.841480 39.081100 -0.000007 -0.000012 -0.158549 0.308700 27.185300 40.985400 -0.000006 -0.000013 0.767811 10.566500 -68.483300 11.754300 -0.000000 0.000003 -0.000217 -0.001984 -16.652200 -2.192510 6.469440 -0.000001 175.828000 29.324800 177.839000 -39.081100 -0.002282 -0.040193 -0.084099 0.182434 25.600700 -40.985400 0.000008 0.000006 4.523670 13.228700 -69.949900 -11.754300 -0.000006 -0.000006 -0.002435 -0.034034 -17.957100
